<?xml version="1.0" encoding="utf-8"?>
<!-- Generator: Adobe Illustrator 23.0.1, SVG Export Plug-In . SVG Version: 6.00 Build 0)  -->
<svg version="1.1" xmlns="http://www.w3.org/2000/svg" xmlns:xlink="http://www.w3.org/1999/xlink" x="0px" y="0px"
	 viewBox="0 0 58 40" style="enable-background:new 0 0 58 40;" xml:space="preserve">
<style type="text/css">
	.st0{display:none;}
	.st1{fill:#18B6AA;stroke:#B7B7B7;stroke-linecap:round;stroke-miterlimit:5;}
	.st2{display:inline;fill:#FFFFFF;stroke:#FFFFFF;stroke-width:0.1;stroke-miterlimit:5;}
	.st3{display:inline;fill:none;stroke:#B7B7B7;stroke-miterlimit:5;}
</style>
<g id="Layer_1" class="st0">
</g>
<g id="Layer_2">
	<path class="st1" d="M50.04,0.6l-42,0C2.07,0.6,0.6,2.07,0.6,7.96V32c0,6.07,1.47,7.4,7.44,7.4h42c5.94,0,7.36-1.33,7.36-7.4V7.96
		C57.4,1.9,55.98,0.6,50.04,0.6z"/>
	<g class="st0">
	</g>
</g>
<g id="Layer_3" class="st0">
	<path class="st2" d="M57,36c0.01,3.23,0.42,2.87-3.5,2.86c-1.82,0-24.5,0-24.5,0V1.11c0,0,19.83,0.02,24.5,0
		C57.31,1.09,57,0.69,57,4C57,7.97,56.99,33.02,57,36z"/>
</g>
<g id="Layer_4" class="st0">
	<line class="st3" x1="28.92" y1="0.08" x2="28.92" y2="39.42"/>
</g>
<g id="Layer_3_copy" class="st0">
	<path class="st2" d="M57,36c0.01,3.23,0.42,2.87-3.5,2.86c-1.82,0-38.21,0-38.21,0l0.04-37.75c0,0,33.5,0.02,38.17,0
		C57.31,1.09,57,0.69,57,4C57,7.97,56.99,33.02,57,36z"/>
</g>
<g id="Layer_4_copy" class="st0">
	<line class="st3" x1="14.92" y1="0.08" x2="14.92" y2="39.42"/>
</g>
<g id="Layer_3_copy_2" class="st0">
	<path class="st2" d="M57,36c0.01,3.23,0.42,2.87-3.5,2.86c-1.82,0-10,0-10,0V1.11c0,0,5.33,0.02,10,0C57.31,1.09,57,0.69,57,4
		C57,7.97,56.99,33.02,57,36z"/>
</g>
<g id="Layer_4_copy_2" class="st0">
	<line class="st3" x1="43.5" y1="0.08" x2="43.5" y2="39.42"/>
</g>
</svg>
