<svg xmlns="http://www.w3.org/2000/svg" viewBox="0 0 57.8 39.81"><defs><style>.cls-1{fill:#18b6aa;stroke-linecap:round;}.cls-1,.cls-3{stroke:#b7b7b7;}.cls-1,.cls-2,.cls-3{stroke-miterlimit:5;}.cls-2{fill:#fff;stroke:#fff;stroke-width:0.1px;}.cls-3{fill:none;}</style></defs><title>Layout-half</title><g id="Layer_2" data-name="Layer 2"><path class="cls-1" d="M50,.6H8C2.07.6.6,2.07.6,8V32c0,6.07,1.47,7.4,7.44,7.4H50c5.94,0,7.36-1.33,7.36-7.4V8C57.4,1.9,56,.6,50,.6Z" transform="translate(-0.1 -0.08)"/></g><g id="Layer_3" data-name="Layer 3"><path class="cls-2" d="M56.87,30c0,9.08-.67,8.93-9.42,8.93l-18.58,0V1.1H47.35c9.22,0,9.47.34,9.52,8.87C56.89,14,56.86,21.89,56.87,30Z" transform="translate(-0.1 -0.08)"/></g><g id="Layer_4" data-name="Layer 4"><line class="cls-3" x1="28.82" x2="28.82" y2="39.33"/></g></svg>